<mxfile host="app.diagrams.net" modified="2024-04-18T00:10:50.798Z" agent="Mozilla/5.0 (Macintosh; Intel Mac OS X 10_15_7) AppleWebKit/537.36 (KHTML, like Gecko) Chrome/121.0.0.0 Safari/537.36" etag="5-8gro0GIkPSOtNO9k3K" version="24.2.5" type="device">
  <diagram name="Page-1" id="Brz1T-335SznEZl_hwVO">
    <mxGraphModel dx="2511" dy="2027" grid="0" gridSize="10" guides="1" tooltips="1" connect="1" arrows="1" fold="1" page="0" pageScale="1" pageWidth="1100" pageHeight="850" math="0" shadow="0">
      <root>
        <mxCell id="0" />
        <mxCell id="1" parent="0" />
        <mxCell id="74nJ0j-40YjijVrkdA7i-1" value="Start" style="strokeWidth=2;html=1;shape=mxgraph.flowchart.start_1;whiteSpace=wrap;fontSize=13;" vertex="1" parent="1">
          <mxGeometry x="150" y="290" width="100" height="60" as="geometry" />
        </mxCell>
        <mxCell id="74nJ0j-40YjijVrkdA7i-2" value="End" style="strokeWidth=2;html=1;shape=mxgraph.flowchart.start_1;whiteSpace=wrap;fontSize=13;" vertex="1" parent="1">
          <mxGeometry x="2476" y="482" width="100" height="60" as="geometry" />
        </mxCell>
        <mxCell id="74nJ0j-40YjijVrkdA7i-3" value="&lt;b&gt;&lt;u&gt;&lt;font style=&quot;font-size: 22px;&quot;&gt;Password Generator Flowchart/Pseudocode&lt;/font&gt;&lt;/u&gt;&lt;/b&gt;" style="rounded=1;whiteSpace=wrap;html=1;" vertex="1" parent="1">
          <mxGeometry x="1228" y="-247" width="280" height="100" as="geometry" />
        </mxCell>
        <mxCell id="74nJ0j-40YjijVrkdA7i-8" style="edgeStyle=orthogonalEdgeStyle;rounded=0;orthogonalLoop=1;jettySize=auto;html=1;exitX=0.5;exitY=1;exitDx=0;exitDy=0;exitPerimeter=0;entryX=0;entryY=0.5;entryDx=0;entryDy=0;fontSize=13;" edge="1" parent="1" source="74nJ0j-40YjijVrkdA7i-4" target="74nJ0j-40YjijVrkdA7i-7">
          <mxGeometry relative="1" as="geometry">
            <Array as="points">
              <mxPoint x="340" y="490" />
            </Array>
          </mxGeometry>
        </mxCell>
        <mxCell id="74nJ0j-40YjijVrkdA7i-11" value="WORD CONCATENATION" style="edgeLabel;html=1;align=center;verticalAlign=middle;resizable=0;points=[];fontSize=13;" vertex="1" connectable="0" parent="74nJ0j-40YjijVrkdA7i-8">
          <mxGeometry x="-0.4021" y="-1" relative="1" as="geometry">
            <mxPoint as="offset" />
          </mxGeometry>
        </mxCell>
        <mxCell id="74nJ0j-40YjijVrkdA7i-9" style="edgeStyle=orthogonalEdgeStyle;rounded=0;orthogonalLoop=1;jettySize=auto;html=1;exitX=0.5;exitY=0;exitDx=0;exitDy=0;exitPerimeter=0;entryX=0;entryY=0.5;entryDx=0;entryDy=0;fontSize=13;" edge="1" parent="1" source="74nJ0j-40YjijVrkdA7i-4" target="74nJ0j-40YjijVrkdA7i-5">
          <mxGeometry relative="1" as="geometry">
            <Array as="points">
              <mxPoint x="340" y="160" />
            </Array>
          </mxGeometry>
        </mxCell>
        <mxCell id="74nJ0j-40YjijVrkdA7i-10" value="RANDOM" style="edgeLabel;html=1;align=center;verticalAlign=middle;resizable=0;points=[];fontSize=13;" vertex="1" connectable="0" parent="74nJ0j-40YjijVrkdA7i-9">
          <mxGeometry x="-0.4708" relative="1" as="geometry">
            <mxPoint as="offset" />
          </mxGeometry>
        </mxCell>
        <mxCell id="74nJ0j-40YjijVrkdA7i-4" value="Password&amp;nbsp;&lt;div style=&quot;font-size: 13px;&quot;&gt;Type?&lt;/div&gt;" style="strokeWidth=2;html=1;shape=mxgraph.flowchart.decision;whiteSpace=wrap;fontSize=13;" vertex="1" parent="1">
          <mxGeometry x="290" y="270" width="100" height="100" as="geometry" />
        </mxCell>
        <mxCell id="74nJ0j-40YjijVrkdA7i-15" style="edgeStyle=orthogonalEdgeStyle;rounded=0;orthogonalLoop=1;jettySize=auto;html=1;exitX=1;exitY=0.5;exitDx=0;exitDy=0;fontSize=13;" edge="1" parent="1" source="74nJ0j-40YjijVrkdA7i-5" target="74nJ0j-40YjijVrkdA7i-14">
          <mxGeometry relative="1" as="geometry" />
        </mxCell>
        <mxCell id="74nJ0j-40YjijVrkdA7i-5" value="Input Minimum Length and/or Maximum Length" style="shape=parallelogram;perimeter=parallelogramPerimeter;whiteSpace=wrap;html=1;fixedSize=1;fontSize=13;" vertex="1" parent="1">
          <mxGeometry x="440" y="130" width="120" height="60" as="geometry" />
        </mxCell>
        <mxCell id="74nJ0j-40YjijVrkdA7i-54" style="edgeStyle=orthogonalEdgeStyle;rounded=0;orthogonalLoop=1;jettySize=auto;html=1;exitX=1;exitY=0.5;exitDx=0;exitDy=0;entryX=0;entryY=0.5;entryDx=0;entryDy=0;fontSize=13;" edge="1" parent="1" source="74nJ0j-40YjijVrkdA7i-7" target="74nJ0j-40YjijVrkdA7i-53">
          <mxGeometry relative="1" as="geometry" />
        </mxCell>
        <mxCell id="74nJ0j-40YjijVrkdA7i-7" value="Input Minimum Length and/or Maximum Length" style="shape=parallelogram;perimeter=parallelogramPerimeter;whiteSpace=wrap;html=1;fixedSize=1;fontSize=13;" vertex="1" parent="1">
          <mxGeometry x="395" y="460" width="120" height="60" as="geometry" />
        </mxCell>
        <mxCell id="74nJ0j-40YjijVrkdA7i-16" style="edgeStyle=orthogonalEdgeStyle;rounded=0;orthogonalLoop=1;jettySize=auto;html=1;exitX=1;exitY=0.5;exitDx=0;exitDy=0;entryX=0;entryY=0.5;entryDx=0;entryDy=0;fontSize=13;" edge="1" parent="1" source="74nJ0j-40YjijVrkdA7i-14">
          <mxGeometry relative="1" as="geometry">
            <mxPoint x="810" y="160" as="targetPoint" />
          </mxGeometry>
        </mxCell>
        <mxCell id="74nJ0j-40YjijVrkdA7i-14" value="Randomize a number in the range for password length X" style="whiteSpace=wrap;html=1;aspect=fixed;fontSize=13;" vertex="1" parent="1">
          <mxGeometry x="650" y="120" width="80" height="80" as="geometry" />
        </mxCell>
        <mxCell id="74nJ0j-40YjijVrkdA7i-57" style="edgeStyle=orthogonalEdgeStyle;rounded=0;orthogonalLoop=1;jettySize=auto;html=1;exitX=1;exitY=0.5;exitDx=0;exitDy=0;entryX=0;entryY=0.5;entryDx=0;entryDy=0;fontSize=13;" edge="1" parent="1" source="74nJ0j-40YjijVrkdA7i-17" target="74nJ0j-40YjijVrkdA7i-56">
          <mxGeometry relative="1" as="geometry" />
        </mxCell>
        <mxCell id="74nJ0j-40YjijVrkdA7i-17" value="Randomize a number in the range for password length X" style="whiteSpace=wrap;html=1;aspect=fixed;fontSize=13;" vertex="1" parent="1">
          <mxGeometry x="727" y="450" width="80" height="80" as="geometry" />
        </mxCell>
        <mxCell id="74nJ0j-40YjijVrkdA7i-22" style="edgeStyle=orthogonalEdgeStyle;rounded=0;orthogonalLoop=1;jettySize=auto;html=1;exitX=1;exitY=0.5;exitDx=0;exitDy=0;exitPerimeter=0;entryX=0;entryY=0.5;entryDx=0;entryDy=0;fontSize=13;" edge="1" parent="1" source="74nJ0j-40YjijVrkdA7i-19" target="74nJ0j-40YjijVrkdA7i-21">
          <mxGeometry relative="1" as="geometry" />
        </mxCell>
        <mxCell id="74nJ0j-40YjijVrkdA7i-46" value="n &amp;lt;= X" style="edgeLabel;html=1;align=center;verticalAlign=middle;resizable=0;points=[];fontSize=13;" vertex="1" connectable="0" parent="74nJ0j-40YjijVrkdA7i-22">
          <mxGeometry x="-0.1721" y="3" relative="1" as="geometry">
            <mxPoint as="offset" />
          </mxGeometry>
        </mxCell>
        <mxCell id="74nJ0j-40YjijVrkdA7i-58" style="edgeStyle=orthogonalEdgeStyle;rounded=0;orthogonalLoop=1;jettySize=auto;html=1;exitX=0.5;exitY=1;exitDx=0;exitDy=0;exitPerimeter=0;entryX=0.5;entryY=1;entryDx=0;entryDy=0;fontSize=13;" edge="1" parent="1" source="74nJ0j-40YjijVrkdA7i-19" target="74nJ0j-40YjijVrkdA7i-48">
          <mxGeometry relative="1" as="geometry">
            <Array as="points">
              <mxPoint x="860" y="380" />
              <mxPoint x="1679" y="380" />
            </Array>
          </mxGeometry>
        </mxCell>
        <mxCell id="74nJ0j-40YjijVrkdA7i-144" value="n &amp;gt; X" style="edgeLabel;html=1;align=center;verticalAlign=middle;resizable=0;points=[];fontSize=13;" vertex="1" connectable="0" parent="74nJ0j-40YjijVrkdA7i-58">
          <mxGeometry x="-0.8897" y="-1" relative="1" as="geometry">
            <mxPoint as="offset" />
          </mxGeometry>
        </mxCell>
        <mxCell id="74nJ0j-40YjijVrkdA7i-19" value="For n = 0&amp;nbsp;&lt;div style=&quot;font-size: 13px;&quot;&gt;&lt;span style=&quot;background-color: initial; font-size: 13px;&quot;&gt;to n = X&lt;/span&gt;&lt;/div&gt;" style="strokeWidth=2;html=1;shape=mxgraph.flowchart.decision;whiteSpace=wrap;fontSize=13;" vertex="1" parent="1">
          <mxGeometry x="810" y="110" width="100" height="100" as="geometry" />
        </mxCell>
        <mxCell id="74nJ0j-40YjijVrkdA7i-24" style="edgeStyle=orthogonalEdgeStyle;rounded=0;orthogonalLoop=1;jettySize=auto;html=1;exitX=1;exitY=0.5;exitDx=0;exitDy=0;fontSize=13;" edge="1" parent="1" source="74nJ0j-40YjijVrkdA7i-21" target="74nJ0j-40YjijVrkdA7i-23">
          <mxGeometry relative="1" as="geometry" />
        </mxCell>
        <mxCell id="74nJ0j-40YjijVrkdA7i-21" value="Randomly select a value 1-4" style="whiteSpace=wrap;html=1;aspect=fixed;fontSize=13;" vertex="1" parent="1">
          <mxGeometry x="990" y="120" width="80" height="80" as="geometry" />
        </mxCell>
        <mxCell id="74nJ0j-40YjijVrkdA7i-29" style="edgeStyle=orthogonalEdgeStyle;rounded=0;orthogonalLoop=1;jettySize=auto;html=1;exitX=1;exitY=0.5;exitDx=0;exitDy=0;exitPerimeter=0;entryX=0;entryY=0.5;entryDx=0;entryDy=0;fontSize=13;" edge="1" parent="1" source="74nJ0j-40YjijVrkdA7i-23" target="74nJ0j-40YjijVrkdA7i-25">
          <mxGeometry relative="1" as="geometry" />
        </mxCell>
        <mxCell id="74nJ0j-40YjijVrkdA7i-35" value="1" style="edgeLabel;html=1;align=center;verticalAlign=middle;resizable=0;points=[];fontSize=13;" vertex="1" connectable="0" parent="74nJ0j-40YjijVrkdA7i-29">
          <mxGeometry x="0.8294" relative="1" as="geometry">
            <mxPoint as="offset" />
          </mxGeometry>
        </mxCell>
        <mxCell id="74nJ0j-40YjijVrkdA7i-30" style="edgeStyle=orthogonalEdgeStyle;rounded=0;orthogonalLoop=1;jettySize=auto;html=1;exitX=1;exitY=0.5;exitDx=0;exitDy=0;exitPerimeter=0;fontSize=13;" edge="1" parent="1" source="74nJ0j-40YjijVrkdA7i-23" target="74nJ0j-40YjijVrkdA7i-26">
          <mxGeometry relative="1" as="geometry" />
        </mxCell>
        <mxCell id="74nJ0j-40YjijVrkdA7i-36" value="2" style="edgeLabel;html=1;align=center;verticalAlign=middle;resizable=0;points=[];fontSize=13;" vertex="1" connectable="0" parent="74nJ0j-40YjijVrkdA7i-30">
          <mxGeometry x="0.5949" y="-1" relative="1" as="geometry">
            <mxPoint as="offset" />
          </mxGeometry>
        </mxCell>
        <mxCell id="74nJ0j-40YjijVrkdA7i-31" style="edgeStyle=orthogonalEdgeStyle;rounded=0;orthogonalLoop=1;jettySize=auto;html=1;exitX=1;exitY=0.5;exitDx=0;exitDy=0;exitPerimeter=0;entryX=0;entryY=0.5;entryDx=0;entryDy=0;fontSize=13;" edge="1" parent="1" source="74nJ0j-40YjijVrkdA7i-23" target="74nJ0j-40YjijVrkdA7i-27">
          <mxGeometry relative="1" as="geometry" />
        </mxCell>
        <mxCell id="74nJ0j-40YjijVrkdA7i-37" value="3" style="edgeLabel;html=1;align=center;verticalAlign=middle;resizable=0;points=[];fontSize=13;" vertex="1" connectable="0" parent="74nJ0j-40YjijVrkdA7i-31">
          <mxGeometry x="0.6103" y="3" relative="1" as="geometry">
            <mxPoint as="offset" />
          </mxGeometry>
        </mxCell>
        <mxCell id="74nJ0j-40YjijVrkdA7i-32" style="edgeStyle=orthogonalEdgeStyle;rounded=0;orthogonalLoop=1;jettySize=auto;html=1;exitX=1;exitY=0.5;exitDx=0;exitDy=0;exitPerimeter=0;entryX=0;entryY=0.5;entryDx=0;entryDy=0;fontSize=13;" edge="1" parent="1" source="74nJ0j-40YjijVrkdA7i-23" target="74nJ0j-40YjijVrkdA7i-28">
          <mxGeometry relative="1" as="geometry" />
        </mxCell>
        <mxCell id="74nJ0j-40YjijVrkdA7i-38" value="4" style="edgeLabel;html=1;align=center;verticalAlign=middle;resizable=0;points=[];fontSize=13;" vertex="1" connectable="0" parent="74nJ0j-40YjijVrkdA7i-32">
          <mxGeometry x="0.7973" y="3" relative="1" as="geometry">
            <mxPoint x="-35" as="offset" />
          </mxGeometry>
        </mxCell>
        <mxCell id="74nJ0j-40YjijVrkdA7i-23" value="Value of&amp;nbsp;&lt;div style=&quot;font-size: 13px;&quot;&gt;random&lt;div style=&quot;font-size: 13px;&quot;&gt;character&lt;/div&gt;&lt;/div&gt;" style="strokeWidth=2;html=1;shape=mxgraph.flowchart.decision;whiteSpace=wrap;fontSize=13;" vertex="1" parent="1">
          <mxGeometry x="1130" y="110" width="100" height="100" as="geometry" />
        </mxCell>
        <mxCell id="74nJ0j-40YjijVrkdA7i-41" style="edgeStyle=orthogonalEdgeStyle;rounded=0;orthogonalLoop=1;jettySize=auto;html=1;exitX=1;exitY=0.5;exitDx=0;exitDy=0;entryX=0;entryY=0.5;entryDx=0;entryDy=0;fontSize=13;" edge="1" parent="1" source="74nJ0j-40YjijVrkdA7i-25" target="74nJ0j-40YjijVrkdA7i-39">
          <mxGeometry relative="1" as="geometry" />
        </mxCell>
        <mxCell id="74nJ0j-40YjijVrkdA7i-25" value="Randomly choose lowercase letter" style="whiteSpace=wrap;html=1;aspect=fixed;fontSize=13;" vertex="1" parent="1">
          <mxGeometry x="1300" y="-60" width="80" height="80" as="geometry" />
        </mxCell>
        <mxCell id="74nJ0j-40YjijVrkdA7i-42" style="edgeStyle=orthogonalEdgeStyle;rounded=0;orthogonalLoop=1;jettySize=auto;html=1;exitX=1;exitY=0.5;exitDx=0;exitDy=0;entryX=0;entryY=0.5;entryDx=0;entryDy=0;fontSize=13;" edge="1" parent="1" source="74nJ0j-40YjijVrkdA7i-26" target="74nJ0j-40YjijVrkdA7i-39">
          <mxGeometry relative="1" as="geometry" />
        </mxCell>
        <mxCell id="74nJ0j-40YjijVrkdA7i-26" value="Randomly choose uppercase letter" style="whiteSpace=wrap;html=1;aspect=fixed;fontSize=13;" vertex="1" parent="1">
          <mxGeometry x="1300" y="60" width="80" height="80" as="geometry" />
        </mxCell>
        <mxCell id="74nJ0j-40YjijVrkdA7i-43" style="edgeStyle=orthogonalEdgeStyle;rounded=0;orthogonalLoop=1;jettySize=auto;html=1;exitX=1;exitY=0.5;exitDx=0;exitDy=0;entryX=0;entryY=0.5;entryDx=0;entryDy=0;fontSize=13;" edge="1" parent="1" source="74nJ0j-40YjijVrkdA7i-27" target="74nJ0j-40YjijVrkdA7i-39">
          <mxGeometry relative="1" as="geometry" />
        </mxCell>
        <mxCell id="74nJ0j-40YjijVrkdA7i-27" value="Randomly choose digit letter" style="whiteSpace=wrap;html=1;aspect=fixed;fontSize=13;" vertex="1" parent="1">
          <mxGeometry x="1300" y="180" width="80" height="80" as="geometry" />
        </mxCell>
        <mxCell id="74nJ0j-40YjijVrkdA7i-44" style="edgeStyle=orthogonalEdgeStyle;rounded=0;orthogonalLoop=1;jettySize=auto;html=1;exitX=1;exitY=0.5;exitDx=0;exitDy=0;entryX=0;entryY=0.5;entryDx=0;entryDy=0;fontSize=13;" edge="1" parent="1" source="74nJ0j-40YjijVrkdA7i-28" target="74nJ0j-40YjijVrkdA7i-39">
          <mxGeometry relative="1" as="geometry" />
        </mxCell>
        <mxCell id="74nJ0j-40YjijVrkdA7i-28" value="Randomly choose symbol letter" style="whiteSpace=wrap;html=1;aspect=fixed;fontSize=13;" vertex="1" parent="1">
          <mxGeometry x="1300" y="290" width="80" height="80" as="geometry" />
        </mxCell>
        <mxCell id="74nJ0j-40YjijVrkdA7i-49" style="edgeStyle=orthogonalEdgeStyle;rounded=0;orthogonalLoop=1;jettySize=auto;html=1;exitX=1;exitY=0.5;exitDx=0;exitDy=0;entryX=0;entryY=0.5;entryDx=0;entryDy=0;fontSize=13;" edge="1" parent="1" source="74nJ0j-40YjijVrkdA7i-39" target="74nJ0j-40YjijVrkdA7i-48">
          <mxGeometry relative="1" as="geometry" />
        </mxCell>
        <mxCell id="74nJ0j-40YjijVrkdA7i-39" value="Add into a list of characters" style="whiteSpace=wrap;html=1;aspect=fixed;fontSize=13;" vertex="1" parent="1">
          <mxGeometry x="1520" y="120" width="80" height="80" as="geometry" />
        </mxCell>
        <mxCell id="74nJ0j-40YjijVrkdA7i-45" style="edgeStyle=orthogonalEdgeStyle;rounded=0;orthogonalLoop=1;jettySize=auto;html=1;exitX=0.5;exitY=0;exitDx=0;exitDy=0;entryX=0.5;entryY=0;entryDx=0;entryDy=0;entryPerimeter=0;fontSize=13;" edge="1" parent="1" source="74nJ0j-40YjijVrkdA7i-39" target="74nJ0j-40YjijVrkdA7i-19">
          <mxGeometry relative="1" as="geometry">
            <Array as="points">
              <mxPoint x="1560" y="-95" />
              <mxPoint x="860" y="-95" />
            </Array>
          </mxGeometry>
        </mxCell>
        <mxCell id="74nJ0j-40YjijVrkdA7i-52" style="edgeStyle=orthogonalEdgeStyle;rounded=0;orthogonalLoop=1;jettySize=auto;html=1;exitX=1;exitY=0.5;exitDx=0;exitDy=0;entryX=0;entryY=0.5;entryDx=0;entryDy=0;fontSize=13;" edge="1" parent="1" source="74nJ0j-40YjijVrkdA7i-48" target="74nJ0j-40YjijVrkdA7i-51">
          <mxGeometry relative="1" as="geometry" />
        </mxCell>
        <mxCell id="74nJ0j-40YjijVrkdA7i-48" value="Add the values in the list together" style="whiteSpace=wrap;html=1;aspect=fixed;fontSize=13;" vertex="1" parent="1">
          <mxGeometry x="1639" y="120" width="80" height="80" as="geometry" />
        </mxCell>
        <mxCell id="74nJ0j-40YjijVrkdA7i-143" style="edgeStyle=orthogonalEdgeStyle;rounded=0;orthogonalLoop=1;jettySize=auto;html=1;exitX=1;exitY=0.5;exitDx=0;exitDy=0;fontSize=13;" edge="1" parent="1" source="74nJ0j-40YjijVrkdA7i-51" target="74nJ0j-40YjijVrkdA7i-142">
          <mxGeometry relative="1" as="geometry" />
        </mxCell>
        <mxCell id="74nJ0j-40YjijVrkdA7i-51" value="Return final value as password" style="whiteSpace=wrap;html=1;aspect=fixed;fontSize=13;" vertex="1" parent="1">
          <mxGeometry x="1769" y="120" width="80" height="80" as="geometry" />
        </mxCell>
        <mxCell id="74nJ0j-40YjijVrkdA7i-55" style="edgeStyle=orthogonalEdgeStyle;rounded=0;orthogonalLoop=1;jettySize=auto;html=1;exitX=1;exitY=0.5;exitDx=0;exitDy=0;entryX=0;entryY=0.5;entryDx=0;entryDy=0;fontSize=13;" edge="1" parent="1" source="74nJ0j-40YjijVrkdA7i-53" target="74nJ0j-40YjijVrkdA7i-17">
          <mxGeometry relative="1" as="geometry" />
        </mxCell>
        <mxCell id="74nJ0j-40YjijVrkdA7i-53" value="Open and Read CSV of words and put into list format" style="whiteSpace=wrap;html=1;aspect=fixed;fontSize=13;" vertex="1" parent="1">
          <mxGeometry x="584" y="450" width="80" height="80" as="geometry" />
        </mxCell>
        <mxCell id="74nJ0j-40YjijVrkdA7i-61" style="edgeStyle=orthogonalEdgeStyle;rounded=0;orthogonalLoop=1;jettySize=auto;html=1;exitX=1;exitY=0.5;exitDx=0;exitDy=0;fontSize=13;" edge="1" parent="1" source="74nJ0j-40YjijVrkdA7i-56" target="74nJ0j-40YjijVrkdA7i-59">
          <mxGeometry relative="1" as="geometry" />
        </mxCell>
        <mxCell id="74nJ0j-40YjijVrkdA7i-56" value="Randomize number of words to concatenate (2-3) - Y" style="whiteSpace=wrap;html=1;aspect=fixed;fontSize=13;" vertex="1" parent="1">
          <mxGeometry x="867" y="450" width="80" height="80" as="geometry" />
        </mxCell>
        <mxCell id="74nJ0j-40YjijVrkdA7i-63" style="edgeStyle=orthogonalEdgeStyle;rounded=0;orthogonalLoop=1;jettySize=auto;html=1;exitX=1;exitY=0.5;exitDx=0;exitDy=0;exitPerimeter=0;fontSize=13;" edge="1" parent="1" source="74nJ0j-40YjijVrkdA7i-59" target="74nJ0j-40YjijVrkdA7i-62">
          <mxGeometry relative="1" as="geometry" />
        </mxCell>
        <mxCell id="74nJ0j-40YjijVrkdA7i-64" value="i &amp;lt;= Y" style="edgeLabel;html=1;align=center;verticalAlign=middle;resizable=0;points=[];fontSize=13;" vertex="1" connectable="0" parent="74nJ0j-40YjijVrkdA7i-63">
          <mxGeometry x="-0.1278" y="1" relative="1" as="geometry">
            <mxPoint as="offset" />
          </mxGeometry>
        </mxCell>
        <mxCell id="74nJ0j-40YjijVrkdA7i-59" value="For i in Y" style="strokeWidth=2;html=1;shape=mxgraph.flowchart.decision;whiteSpace=wrap;fontSize=13;" vertex="1" parent="1">
          <mxGeometry x="996" y="442" width="100" height="100" as="geometry" />
        </mxCell>
        <mxCell id="74nJ0j-40YjijVrkdA7i-62" value="Randomly choose a word in the list" style="whiteSpace=wrap;html=1;aspect=fixed;fontSize=13;" vertex="1" parent="1">
          <mxGeometry x="1176" y="452" width="80" height="80" as="geometry" />
        </mxCell>
        <mxCell id="74nJ0j-40YjijVrkdA7i-67" style="edgeStyle=orthogonalEdgeStyle;rounded=0;orthogonalLoop=1;jettySize=auto;html=1;exitX=1;exitY=0.5;exitDx=0;exitDy=0;entryX=0;entryY=0.5;entryDx=0;entryDy=0;entryPerimeter=0;fontSize=13;" edge="1" parent="1" source="74nJ0j-40YjijVrkdA7i-62">
          <mxGeometry relative="1" as="geometry">
            <mxPoint x="1306" y="492" as="targetPoint" />
          </mxGeometry>
        </mxCell>
        <mxCell id="74nJ0j-40YjijVrkdA7i-74" value="Add the words to a list" style="whiteSpace=wrap;html=1;aspect=fixed;fontSize=13;" vertex="1" parent="1">
          <mxGeometry x="1446" y="452" width="80" height="80" as="geometry" />
        </mxCell>
        <mxCell id="74nJ0j-40YjijVrkdA7i-150" style="edgeStyle=orthogonalEdgeStyle;rounded=0;orthogonalLoop=1;jettySize=auto;html=1;exitX=0.5;exitY=0;exitDx=0;exitDy=0;exitPerimeter=0;entryX=0;entryY=0.5;entryDx=0;entryDy=0;fontSize=13;" edge="1" parent="1" source="74nJ0j-40YjijVrkdA7i-84" target="74nJ0j-40YjijVrkdA7i-149">
          <mxGeometry relative="1" as="geometry" />
        </mxCell>
        <mxCell id="74nJ0j-40YjijVrkdA7i-151" value="Yes" style="edgeLabel;html=1;align=center;verticalAlign=middle;resizable=0;points=[];fontSize=13;" vertex="1" connectable="0" parent="74nJ0j-40YjijVrkdA7i-150">
          <mxGeometry x="0.1619" y="-2" relative="1" as="geometry">
            <mxPoint as="offset" />
          </mxGeometry>
        </mxCell>
        <mxCell id="74nJ0j-40YjijVrkdA7i-152" style="edgeStyle=orthogonalEdgeStyle;rounded=0;orthogonalLoop=1;jettySize=auto;html=1;exitX=0.5;exitY=1;exitDx=0;exitDy=0;exitPerimeter=0;entryX=0;entryY=0.5;entryDx=0;entryDy=0;fontSize=13;" edge="1" parent="1" source="74nJ0j-40YjijVrkdA7i-84" target="74nJ0j-40YjijVrkdA7i-129">
          <mxGeometry relative="1" as="geometry" />
        </mxCell>
        <mxCell id="74nJ0j-40YjijVrkdA7i-153" value="No" style="edgeLabel;html=1;align=center;verticalAlign=middle;resizable=0;points=[];fontSize=13;" vertex="1" connectable="0" parent="74nJ0j-40YjijVrkdA7i-152">
          <mxGeometry x="-0.3798" y="-1" relative="1" as="geometry">
            <mxPoint x="-1" as="offset" />
          </mxGeometry>
        </mxCell>
        <mxCell id="74nJ0j-40YjijVrkdA7i-84" value="Symbol and/or Number?" style="strokeWidth=2;html=1;shape=mxgraph.flowchart.decision;whiteSpace=wrap;fontSize=13;" vertex="1" parent="1">
          <mxGeometry x="1576" y="442" width="100" height="100" as="geometry" />
        </mxCell>
        <mxCell id="74nJ0j-40YjijVrkdA7i-133" style="edgeStyle=orthogonalEdgeStyle;rounded=0;orthogonalLoop=1;jettySize=auto;html=1;exitX=1;exitY=0.5;exitDx=0;exitDy=0;entryX=0;entryY=0.5;entryDx=0;entryDy=0;fontSize=13;" edge="1" parent="1" source="74nJ0j-40YjijVrkdA7i-129" target="74nJ0j-40YjijVrkdA7i-132">
          <mxGeometry relative="1" as="geometry" />
        </mxCell>
        <mxCell id="74nJ0j-40YjijVrkdA7i-129" value="Add all the values in the list of things to concatenate together" style="whiteSpace=wrap;html=1;aspect=fixed;fontSize=13;" vertex="1" parent="1">
          <mxGeometry x="1935.9999999999998" y="512" width="110" height="110" as="geometry" />
        </mxCell>
        <mxCell id="74nJ0j-40YjijVrkdA7i-132" value="If length X = length of concatenated string" style="rhombus;whiteSpace=wrap;html=1;fontSize=13;" vertex="1" parent="1">
          <mxGeometry x="2126" y="442" width="150" height="140" as="geometry" />
        </mxCell>
        <mxCell id="74nJ0j-40YjijVrkdA7i-139" style="edgeStyle=orthogonalEdgeStyle;rounded=0;orthogonalLoop=1;jettySize=auto;html=1;exitX=0.5;exitY=1;exitDx=0;exitDy=0;entryX=0.5;entryY=1;entryDx=0;entryDy=0;entryPerimeter=0;fontSize=13;" edge="1" parent="1" source="74nJ0j-40YjijVrkdA7i-132" target="74nJ0j-40YjijVrkdA7i-59">
          <mxGeometry relative="1" as="geometry">
            <Array as="points">
              <mxPoint x="2201" y="652" />
              <mxPoint x="1046" y="652" />
            </Array>
          </mxGeometry>
        </mxCell>
        <mxCell id="74nJ0j-40YjijVrkdA7i-140" value="False" style="edgeLabel;html=1;align=center;verticalAlign=middle;resizable=0;points=[];fontSize=13;" vertex="1" connectable="0" parent="74nJ0j-40YjijVrkdA7i-139">
          <mxGeometry x="-0.9601" y="-1" relative="1" as="geometry">
            <mxPoint as="offset" />
          </mxGeometry>
        </mxCell>
        <mxCell id="74nJ0j-40YjijVrkdA7i-141" style="edgeStyle=orthogonalEdgeStyle;rounded=0;orthogonalLoop=1;jettySize=auto;html=1;exitX=1;exitY=0.5;exitDx=0;exitDy=0;entryX=0;entryY=0.5;entryDx=0;entryDy=0;entryPerimeter=0;fontSize=13;" edge="1" parent="1" source="74nJ0j-40YjijVrkdA7i-137" target="74nJ0j-40YjijVrkdA7i-2">
          <mxGeometry relative="1" as="geometry" />
        </mxCell>
        <mxCell id="74nJ0j-40YjijVrkdA7i-142" value="End" style="strokeWidth=2;html=1;shape=mxgraph.flowchart.start_1;whiteSpace=wrap;fontSize=13;" vertex="1" parent="1">
          <mxGeometry x="1936.95" y="130" width="100" height="60" as="geometry" />
        </mxCell>
        <mxCell id="74nJ0j-40YjijVrkdA7i-147" style="edgeStyle=orthogonalEdgeStyle;rounded=0;orthogonalLoop=1;jettySize=auto;html=1;exitX=1;exitY=0.5;exitDx=0;exitDy=0;entryX=0;entryY=0.5;entryDx=0;entryDy=0;fontSize=13;" edge="1" parent="1" source="74nJ0j-40YjijVrkdA7i-145" target="74nJ0j-40YjijVrkdA7i-74">
          <mxGeometry relative="1" as="geometry" />
        </mxCell>
        <mxCell id="74nJ0j-40YjijVrkdA7i-145" value="Randomize capitalizing the first letter of the word or not" style="whiteSpace=wrap;html=1;aspect=fixed;fontSize=13;" vertex="1" parent="1">
          <mxGeometry x="1306" y="452" width="80" height="80" as="geometry" />
        </mxCell>
        <mxCell id="74nJ0j-40YjijVrkdA7i-148" style="edgeStyle=orthogonalEdgeStyle;rounded=0;orthogonalLoop=1;jettySize=auto;html=1;exitX=1;exitY=0.5;exitDx=0;exitDy=0;entryX=0;entryY=0.5;entryDx=0;entryDy=0;entryPerimeter=0;fontSize=13;" edge="1" parent="1" source="74nJ0j-40YjijVrkdA7i-74" target="74nJ0j-40YjijVrkdA7i-84">
          <mxGeometry relative="1" as="geometry" />
        </mxCell>
        <mxCell id="74nJ0j-40YjijVrkdA7i-154" style="edgeStyle=orthogonalEdgeStyle;rounded=0;orthogonalLoop=1;jettySize=auto;html=1;exitX=1;exitY=0.5;exitDx=0;exitDy=0;entryX=0.5;entryY=0;entryDx=0;entryDy=0;fontSize=13;" edge="1" parent="1" source="74nJ0j-40YjijVrkdA7i-155" target="74nJ0j-40YjijVrkdA7i-129">
          <mxGeometry relative="1" as="geometry" />
        </mxCell>
        <mxCell id="74nJ0j-40YjijVrkdA7i-149" value="Randomize order of symbol and digit and selection of symbol and/or digit" style="whiteSpace=wrap;html=1;aspect=fixed;fontSize=13;" vertex="1" parent="1">
          <mxGeometry x="1710.18" y="362" width="120" height="120" as="geometry" />
        </mxCell>
        <mxCell id="74nJ0j-40YjijVrkdA7i-156" value="" style="edgeStyle=orthogonalEdgeStyle;rounded=0;orthogonalLoop=1;jettySize=auto;html=1;exitX=1;exitY=0.5;exitDx=0;exitDy=0;entryX=0;entryY=0.5;entryDx=0;entryDy=0;fontSize=13;" edge="1" parent="1" source="74nJ0j-40YjijVrkdA7i-149" target="74nJ0j-40YjijVrkdA7i-155">
          <mxGeometry relative="1" as="geometry">
            <mxPoint x="1830.18" y="422" as="sourcePoint" />
            <mxPoint x="1955.18" y="512" as="targetPoint" />
          </mxGeometry>
        </mxCell>
        <mxCell id="74nJ0j-40YjijVrkdA7i-155" value="Add to list of values" style="whiteSpace=wrap;html=1;aspect=fixed;fontSize=13;" vertex="1" parent="1">
          <mxGeometry x="1883.9499999999998" y="382" width="80" height="80" as="geometry" />
        </mxCell>
        <mxCell id="74nJ0j-40YjijVrkdA7i-157" value="" style="edgeStyle=orthogonalEdgeStyle;rounded=0;orthogonalLoop=1;jettySize=auto;html=1;exitX=1;exitY=0.5;exitDx=0;exitDy=0;entryX=0;entryY=0.5;entryDx=0;entryDy=0;fontSize=13;" edge="1" parent="1" source="74nJ0j-40YjijVrkdA7i-132" target="74nJ0j-40YjijVrkdA7i-137">
          <mxGeometry relative="1" as="geometry">
            <mxPoint x="2340.18" y="512" as="sourcePoint" />
            <mxPoint x="2700.18" y="497.45" as="targetPoint" />
          </mxGeometry>
        </mxCell>
        <mxCell id="74nJ0j-40YjijVrkdA7i-158" value="True" style="edgeLabel;html=1;align=center;verticalAlign=middle;resizable=0;points=[];fontSize=13;" vertex="1" connectable="0" parent="74nJ0j-40YjijVrkdA7i-157">
          <mxGeometry x="-0.0988" relative="1" as="geometry">
            <mxPoint as="offset" />
          </mxGeometry>
        </mxCell>
        <mxCell id="74nJ0j-40YjijVrkdA7i-137" value="Return final password" style="whiteSpace=wrap;html=1;aspect=fixed;fontSize=13;" vertex="1" parent="1">
          <mxGeometry x="2356" y="472" width="80" height="80" as="geometry" />
        </mxCell>
        <mxCell id="74nJ0j-40YjijVrkdA7i-159" style="edgeStyle=orthogonalEdgeStyle;rounded=0;orthogonalLoop=1;jettySize=auto;html=1;exitX=1;exitY=0.5;exitDx=0;exitDy=0;exitPerimeter=0;entryX=0;entryY=0.5;entryDx=0;entryDy=0;entryPerimeter=0;fontSize=13;" edge="1" parent="1" source="74nJ0j-40YjijVrkdA7i-1" target="74nJ0j-40YjijVrkdA7i-4">
          <mxGeometry relative="1" as="geometry" />
        </mxCell>
      </root>
    </mxGraphModel>
  </diagram>
</mxfile>
